# xmcd
# Track frame offsets:
# 150
# 10464
# 26683
# 40890
# 63816
# 82981
# 99727
# 131997
# 160723
#
# Disc length: 2567 seconds
# Revision: 0
# Processed by: cddbd v1.5.2PL0 Copyright (c) Steve Scherf et al.
# Submitted via: VisiTrax 2.10.2.252 - For more info visit www.synapsa.com
#
DISCID=6d0a0509
DTITLE=Various Artist - A Real Summit Meeting cd 2
DYEAR=1973
DGENRE=Blues
TTITLE0=Lloyd Glenn - Honky Tonk Train
TTITLE1=Lloyd Glenn - After hours
TTITLE2=Lloyd Glenn - Pine Tops Boogie Woogie
TTITLE3=Muddy Waters - Long Distance call
TTITLE4=Muddy Waters - Where´s my woman been
TTITLE5=Muddy Waters - Got my mojo workin
TTITLE6=Clarence " Gatemouth" Brown - The drifter
TTITLE7=Clarence " Gatemouth" Brown - Please Mr. Nixon
TTITLE8=B.B. King - Outside
EXTD=
EXTT0=
EXTT1=
EXTT2=
EXTT3=
EXTT4=
EXTT5=
EXTT6=
EXTT7=
EXTT8=
PLAYORDER=
